<svg xmlns="http://www.w3.org/2000/svg" width="45" height="45" viewBox="0 0 45 45" fill="none"><path d="M44.2712 31.9116L23.0896 21.3208C22.7184 21.1353 22.2816 21.1353 21.9104 21.3208L0.728789 31.9116C0.282129 32.1349 0 32.5914 0 33.0908C0 33.5901 0.282129 34.0467 0.728789 34.2699L21.9104 44.8607C22.096 44.9535 22.298 44.9999 22.5 44.9999C22.702 44.9999 22.904 44.9535 23.0896 44.8607L44.2712 34.2699C44.7179 34.0467 45 33.5901 45 33.0908C45 32.5914 44.7179 32.1349 44.2712 31.9116Z" fill="#385A81"></path><path d="M44.2716 31.9117L23.09 21.3209C22.8947 21.2232 22.6813 21.1784 22.4688 21.1835V44.9982C22.4793 44.9984 22.4898 45 22.5004 45C22.7024 45 22.9044 44.9536 23.09 44.8608L44.2716 34.27C44.7183 34.0467 45.0004 33.5902 45.0004 33.0908C45.0004 32.5914 44.7183 32.1349 44.2716 31.9117Z" fill="#274265"></path><path d="M44.2712 21.3208L23.0896 10.73C22.7184 10.5444 22.2816 10.5444 21.9104 10.73L0.728789 21.3208C0.282129 21.544 0 22.0005 0 22.4999C0 22.9993 0.282129 23.4558 0.728789 23.6791L21.9104 34.2699C22.096 34.3627 22.298 34.4091 22.5 34.4091C22.702 34.4091 22.904 34.3627 23.0896 34.2699L44.2712 23.6791C44.7179 23.4558 45 22.9992 45 22.4999C45 22.0006 44.7179 21.544 44.2712 21.3208Z" fill="#EDF6FC"></path><path d="M44.2716 21.3209L23.09 10.73C22.8947 10.6324 22.6813 10.5876 22.4688 10.5927V34.4073C22.4793 34.4076 22.4898 34.4092 22.5004 34.4092C22.7024 34.4092 22.9044 34.3628 23.09 34.27L44.2716 23.6791C44.7183 23.4559 45.0004 22.9993 45.0004 22.5C45.0004 22.0007 44.7183 21.5441 44.2716 21.3209Z" fill="#D2E1FE"></path><path d="M44.2712 10.73L23.0896 0.139153C22.7184 -0.0463843 22.2816 -0.0463843 21.9104 0.139153L0.728789 10.73C0.282129 10.9532 0 11.4097 0 11.9091C0 12.4085 0.282129 12.865 0.728789 13.0883L21.9104 23.6791C22.096 23.7719 22.298 23.8183 22.5 23.8183C22.702 23.8183 22.904 23.7719 23.0896 23.6791L44.2712 13.0883C44.7179 12.865 45 12.4085 45 11.9091C45 11.4097 44.7179 10.9532 44.2712 10.73Z" fill="#FF5271"></path><path d="M44.2716 10.73L23.09 0.139228C22.8947 0.0415814 22.6813 -0.0032428 22.4688 0.00185486V23.8165C22.4793 23.8168 22.4898 23.8184 22.5004 23.8184C22.7024 23.8184 22.9044 23.772 23.09 23.6791L44.2716 13.0883C44.7183 12.8651 45.0004 12.4086 45.0004 11.9092C45.0004 11.4098 44.7183 10.9533 44.2716 10.73Z" fill="#FF224A"></path></svg>