<svg xmlns="http://www.w3.org/2000/svg" width="54" height="54" viewBox="0 0 54 54" fill="none"><g clip-path="url(#clip0_101_2549)"><path d="M35.8974 17.3107C45.7575 17.1601 53.8051 24.9206 53.996 34.7799C54.0241 36.2275 53.8794 37.6364 53.5813 38.9879C53.0766 41.2763 52.7765 43.6049 52.7765 45.9483V50.478C52.7765 51.172 52.2139 51.7345 51.52 51.7345H46.9903C44.6469 51.7345 42.3182 52.0346 40.0299 52.5394C38.6785 52.8374 37.2696 52.9821 35.822 52.9541C25.9628 52.7633 18.2023 44.7158 18.3527 34.856C18.4994 25.232 26.2735 17.4578 35.8974 17.3107Z" fill="url(#paint0_linear_101_2549)"></path><path d="M35.8974 17.3107C45.7575 17.1601 53.8051 24.9206 53.996 34.7799C54.0241 36.2275 53.8794 37.6364 53.5813 38.9879C53.0766 41.2763 52.7765 43.6049 52.7765 45.9483V50.478C52.7765 51.172 52.2139 51.7345 51.52 51.7345H46.9903C44.6469 51.7345 42.3182 52.0346 40.0299 52.5394C38.6785 52.8374 37.2696 52.9821 35.822 52.9541C25.9628 52.7633 18.2023 44.7158 18.3527 34.856C18.4994 25.232 26.2735 17.4578 35.8974 17.3107Z" fill="url(#paint1_linear_101_2549)"></path><path d="M22.0533 1.04511C10.0411 0.861592 0.236815 10.3159 0.00415117 22.3273C-0.0299152 24.0906 0.146323 25.8073 0.509557 27.4537C1.12444 30.2414 1.48999 33.0784 1.48999 35.9334V41.4517C1.48999 42.2971 2.17533 42.9826 3.02087 42.9826H8.53919C11.394 42.9826 14.231 43.3481 17.0189 43.963C18.6652 44.3261 20.3818 44.5025 22.1452 44.4683C34.1563 44.2357 43.6107 34.4318 43.4276 22.4198C43.2487 10.6952 33.7778 1.22409 22.0533 1.04511Z" fill="url(#paint2_linear_101_2549)"></path><path d="M13.9419 21.5933C13.3285 20.9416 12.4602 20.5322 11.4944 20.5322C9.63674 20.5322 8.13086 22.0381 8.13086 23.8957C8.13086 24.8615 8.54008 25.7297 9.19198 26.3432L16.4476 33.5988C17.0611 34.2506 17.9293 34.66 18.8951 34.66C20.7527 34.66 22.2586 33.1541 22.2586 31.2965C22.2586 30.3307 21.8493 29.4625 21.1975 28.8489L13.9419 21.5933Z" fill="url(#paint3_linear_101_2549)"></path><path d="M11.4944 27.259C13.352 27.259 14.8579 25.7531 14.8579 23.8955C14.8579 22.0379 13.352 20.532 11.4944 20.532C9.63675 20.532 8.13086 22.0379 8.13086 23.8955C8.13086 25.7531 9.63675 27.259 11.4944 27.259Z" fill="white"></path><path d="M23.4546 21.5936C22.8411 20.9418 21.9729 20.5325 21.0071 20.5325C19.1494 20.5325 17.6436 22.0384 17.6436 23.896C17.6436 24.8617 18.0528 25.73 18.7047 26.3435L25.9603 33.5991C26.5738 34.2509 27.442 34.6602 28.4078 34.6602C30.2654 34.6602 31.7713 33.1543 31.7713 31.2967C31.7713 30.3309 31.362 29.4627 30.7102 28.8492L23.4546 21.5936Z" fill="url(#paint4_linear_101_2549)"></path><path d="M21.0071 27.259C22.8647 27.259 24.3706 25.7531 24.3706 23.8955C24.3706 22.0379 22.8647 20.532 21.0071 20.532C19.1494 20.532 17.6436 22.0379 17.6436 23.8955C17.6436 25.7531 19.1494 27.259 21.0071 27.259Z" fill="white"></path><path d="M32.9663 21.5936C32.3529 20.9418 31.4847 20.5325 30.5188 20.5325C28.6612 20.5325 27.1553 22.0384 27.1553 23.896C27.1553 24.8617 27.5646 25.73 28.2164 26.3435L35.472 33.5991C36.0855 34.2509 36.9537 34.6602 37.9195 34.6602C39.7771 34.6602 41.283 33.1543 41.283 31.2967C41.283 30.3309 40.8737 29.4627 40.2219 28.8492L32.9663 21.5936Z" fill="url(#paint5_linear_101_2549)"></path><path d="M30.5197 27.259C32.3774 27.259 33.8832 25.7531 33.8832 23.8955C33.8832 22.0379 32.3774 20.532 30.5197 20.532C28.6621 20.532 27.1562 22.0379 27.1562 23.8955C27.1562 25.7531 28.6621 27.259 30.5197 27.259Z" fill="white"></path></g><defs><linearGradient id="paint0_linear_101_2549" x1="32.5769" y1="31.5361" x2="58.7462" y2="57.7053" gradientUnits="userSpaceOnUse"><stop stop-color="#A7F3CE"></stop><stop offset="1" stop-color="#61DB99"></stop></linearGradient><linearGradient id="paint1_linear_101_2549" x1="41.1434" y1="40.102" x2="30.0281" y2="28.9878" gradientUnits="userSpaceOnUse"><stop stop-color="#61DB99" stop-opacity="0"></stop><stop offset="1" stop-color="#009E74"></stop></linearGradient><linearGradient id="paint2_linear_101_2549" x1="13.7815" y1="19.2469" x2="41.4109" y2="46.8762" gradientUnits="userSpaceOnUse"><stop stop-color="#62E1FB"></stop><stop offset="1" stop-color="#00A2F3"></stop></linearGradient><linearGradient id="paint3_linear_101_2549" x1="18.9765" y1="31.3785" x2="4.42923" y2="16.8317" gradientUnits="userSpaceOnUse"><stop stop-color="#00A2F3" stop-opacity="0"></stop><stop offset="1" stop-color="#0075CD"></stop></linearGradient><linearGradient id="paint4_linear_101_2549" x1="28.4885" y1="31.3784" x2="13.9417" y2="16.8316" gradientUnits="userSpaceOnUse"><stop stop-color="#00A2F3" stop-opacity="0"></stop><stop offset="1" stop-color="#0075CD"></stop></linearGradient><linearGradient id="paint5_linear_101_2549" x1="38.0002" y1="31.3786" x2="23.4534" y2="16.8318" gradientUnits="userSpaceOnUse"><stop stop-color="#00A2F3" stop-opacity="0"></stop><stop offset="1" stop-color="#0075CD"></stop></linearGradient><clipPath id="clip0_101_2549"><rect width="54" height="54" fill="white"></rect></clipPath></defs></svg>