<svg xmlns="http://www.w3.org/2000/svg" width="54" height="54" viewBox="0 0 54 54" fill="none"><path d="M28.9869 3.44806L36.1295 17.9202L52.1004 20.2409C53.9179 20.5049 54.6435 22.7384 53.3285 24.0204L41.7716 35.2853L44.4997 51.1917C44.8102 53.0017 42.9103 54.3821 41.2849 53.5275L26.9999 46.0175L12.7151 53.5275C11.0896 54.382 9.18969 53.0017 9.50019 51.1917L12.2283 35.2853L0.671537 24.0203C-0.643548 22.7383 0.0821797 20.505 1.89961 20.2408L17.8706 17.9201L25.013 3.44806C25.8258 1.80117 28.1741 1.80117 28.9869 3.44806Z" fill="url(#paint0_linear_101_2541)"></path><path d="M36.1292 17.9202L28.9869 3.44803C28.5805 2.62464 27.7903 2.21289 27 2.21289V29.6124L36.1292 17.9202Z" fill="url(#paint1_linear_101_2541)"></path><path d="M41.7717 35.2853L53.3284 24.0202C53.9771 23.3878 54.1285 22.5241 53.8978 21.7793L27 29.6123L41.7717 35.2853Z" fill="url(#paint2_linear_101_2541)"></path><path d="M43.625 53.3536L27 29.6123V46.0175L41.2848 53.5275C42.1005 53.9563 42.9851 53.8221 43.625 53.3536Z" fill="url(#paint3_linear_101_2541)"></path><path d="M27.0001 29.6123L12.2285 35.2852L9.50042 51.1917C9.3457 52.0934 9.73994 52.8883 10.3752 53.3537L27.0001 29.6123Z" fill="url(#paint4_linear_101_2541)"></path><path d="M0.102539 21.7795L27.0003 29.6124L17.871 17.9202L1.90004 20.241C0.979192 20.3747 0.339421 21.0144 0.102539 21.7795Z" fill="url(#paint5_linear_101_2541)"></path><path d="M12.2287 35.2854L0.67188 24.0204C0.0231443 23.388 -0.128203 22.5244 0.102457 21.7795L27.0003 29.6125L12.2287 35.2854Z" fill="url(#paint6_linear_101_2541)"></path><defs><linearGradient id="paint0_linear_101_2541" x1="27.0008" y1="8.22763" x2="27.0008" y2="67.8104" gradientUnits="userSpaceOnUse"><stop stop-color="#FFCF95"></stop><stop offset="0.427" stop-color="#FFC954"></stop><stop offset="1" stop-color="#FFC200"></stop></linearGradient><linearGradient id="paint1_linear_101_2541" x1="40.9962" y1="15.9112" x2="22.9844" y2="15.9112" gradientUnits="userSpaceOnUse"><stop stop-color="#FFC200" stop-opacity="0"></stop><stop offset="0.203" stop-color="#FFBB00" stop-opacity="0.203"></stop><stop offset="0.499" stop-color="#FFA700" stop-opacity="0.499"></stop><stop offset="0.852" stop-color="#FF8800" stop-opacity="0.852"></stop><stop offset="1" stop-color="#FF7800"></stop></linearGradient><linearGradient id="paint2_linear_101_2541" x1="44.0732" y1="43.5075" x2="39.303" y2="20.0168" gradientUnits="userSpaceOnUse"><stop stop-color="#FFC200" stop-opacity="0"></stop><stop offset="0.203" stop-color="#FFBB00" stop-opacity="0.203"></stop><stop offset="0.499" stop-color="#FFA700" stop-opacity="0.499"></stop><stop offset="0.852" stop-color="#FF8800" stop-opacity="0.852"></stop><stop offset="1" stop-color="#FF7800"></stop></linearGradient><linearGradient id="paint3_linear_101_2541" x1="20.9437" y1="55.8524" x2="39.6259" y2="37.1701" gradientUnits="userSpaceOnUse"><stop stop-color="#FFC200" stop-opacity="0"></stop><stop offset="0.203" stop-color="#FFBB00" stop-opacity="0.203"></stop><stop offset="0.499" stop-color="#FFA700" stop-opacity="0.499"></stop><stop offset="0.852" stop-color="#FF8800" stop-opacity="0.852"></stop><stop offset="1" stop-color="#FF7800"></stop></linearGradient><linearGradient id="paint4_linear_101_2541" x1="7.62122" y1="32.2268" x2="21.3916" y2="43.7471" gradientUnits="userSpaceOnUse"><stop stop-color="#FFC200" stop-opacity="0"></stop><stop offset="0.203" stop-color="#FFBB00" stop-opacity="0.203"></stop><stop offset="0.499" stop-color="#FFA700" stop-opacity="0.499"></stop><stop offset="0.852" stop-color="#FF8800" stop-opacity="0.852"></stop><stop offset="1" stop-color="#FF7800"></stop></linearGradient><linearGradient id="paint5_linear_101_2541" x1="17.9442" y1="13.2238" x2="12.3641" y2="29.0642" gradientUnits="userSpaceOnUse"><stop stop-color="#FFC200" stop-opacity="0"></stop><stop offset="0.203" stop-color="#FFBB00" stop-opacity="0.203"></stop><stop offset="0.499" stop-color="#FFA700" stop-opacity="0.499"></stop><stop offset="0.852" stop-color="#FF8800" stop-opacity="0.852"></stop><stop offset="1" stop-color="#FF7800"></stop></linearGradient><linearGradient id="paint6_linear_101_2541" x1="38.9492" y1="14.878" x2="-2.04694" y2="32.3385" gradientUnits="userSpaceOnUse"><stop stop-color="#FFC200" stop-opacity="0"></stop><stop offset="0.203" stop-color="#FFBB00" stop-opacity="0.203"></stop><stop offset="0.499" stop-color="#FFA700" stop-opacity="0.499"></stop><stop offset="0.852" stop-color="#FF8800" stop-opacity="0.852"></stop><stop offset="1" stop-color="#FF7800"></stop></linearGradient></defs></svg>